<svg xmlns="http://www.w3.org/2000/svg" width="1600" height="1000" viewBox="0 0 1600 1000">
  <defs>
    <linearGradient id="sky" x1="0" y1="0" x2="0" y2="1"><stop stop-color="#0a0d11"/><stop offset=".42" stop-color="#202a34"/><stop offset=".62" stop-color="#56606a"/><stop offset=".63" stop-color="#151b22"/><stop offset="1" stop-color="#080b0f"/></linearGradient>
    <filter id="storm"><feTurbulence type="fractalNoise" baseFrequency="0.006 0.02" numOctaves="4" seed="115"/><feColorMatrix type="saturate" values="0"/><feGaussianBlur stdDeviation="1.4"/></filter>
    <radialGradient id="light" cx="52%" cy="54%" r="34%"><stop stop-color="#d5dde6" stop-opacity=".45"/><stop offset="1" stop-color="#d5dde6" stop-opacity="0"/></radialGradient>
  </defs>
  <rect width="1600" height="1000" fill="url(#sky)"/>
  <rect width="1600" height="620" filter="url(#storm)" opacity=".28" fill="#c2cad2"/>
  <ellipse cx="820" cy="540" rx="540" ry="170" fill="url(#light)"/>
  <path d="M0 610 C220 550 340 640 530 600 C780 548 980 646 1190 590 C1390 538 1510 570 1600 544 L1600 1000 L0 1000 Z" fill="#080b0f" opacity=".72"/>
  <path d="M0 650 C260 620 410 688 640 640 C880 590 1050 694 1290 632 C1430 596 1538 610 1600 590" fill="none" stroke="#9aa6b1" stroke-opacity=".18" stroke-width="3"/>
</svg>